<svg xmlns="http://www.w3.org/2000/svg" width="24" height="24" viewBox="0 0 24 24"><g fill="#fff" stroke="#fff" stroke-width="2.8" stroke-linejoin="round"><rect x="7.3" y="8.4" width="3.1" height="5" rx="1.55"/><rect x="10.4" y="7.8" width="3.1" height="5" rx="1.55"/><rect x="13.5" y="8" width="3" height="5" rx="1.5"/><rect x="16.4" y="8.8" width="2.8" height="5" rx="1.4"/><rect x="4.2" y="11.4" width="3" height="5.6" rx="1.5" transform="rotate(-30 5.7 14.2)"/><rect x="6.6" y="10.2" width="12.6" height="11" rx="3.6"/></g><g fill="#000"><rect x="7.3" y="8.4" width="3.1" height="5" rx="1.55"/><rect x="10.4" y="7.8" width="3.1" height="5" rx="1.55"/><rect x="13.5" y="8" width="3" height="5" rx="1.5"/><rect x="16.4" y="8.8" width="2.8" height="5" rx="1.4"/><rect x="4.2" y="11.4" width="3" height="5.6" rx="1.5" transform="rotate(-30 5.7 14.2)"/><rect x="6.6" y="10.2" width="12.6" height="11" rx="3.6"/></g><path d="M10.4 10.2 V12.4 M13.5 10 V12.4 M16.4 10.6 V12.6" fill="none" stroke="#fff" stroke-width="1" stroke-linecap="round" stroke-linejoin="round"/></svg>