<svg xmlns="http://www.w3.org/2000/svg" width="24" height="24" viewBox="0 0 24 24"><g fill="#fff" stroke="#fff" stroke-width="2.8" stroke-linejoin="round"><rect x="7.6" y="3.6" width="2.9" height="10" rx="1.45"/><rect x="10.6" y="2.4" width="2.9" height="10" rx="1.45"/><rect x="13.6" y="3" width="2.9" height="10" rx="1.45"/><rect x="16.5" y="5" width="2.7" height="9" rx="1.35"/><rect x="3.6" y="10.4" width="3" height="6.4" rx="1.5" transform="rotate(-40 5.1 13.6)"/><rect x="6.6" y="10.2" width="12.6" height="11" rx="3.6"/></g><g fill="#000"><rect x="7.6" y="3.6" width="2.9" height="10" rx="1.45"/><rect x="10.6" y="2.4" width="2.9" height="10" rx="1.45"/><rect x="13.6" y="3" width="2.9" height="10" rx="1.45"/><rect x="16.5" y="5" width="2.7" height="9" rx="1.35"/><rect x="3.6" y="10.4" width="3" height="6.4" rx="1.5" transform="rotate(-40 5.1 13.6)"/><rect x="6.6" y="10.2" width="12.6" height="11" rx="3.6"/></g></svg>